<svg width="346" height="131" viewBox="0 0 346 131" fill="none" xmlns="http://www.w3.org/2000/svg">
<g clip-path="url(#clip0_3914_1200)">
<path d="M144.161 111.427L115.864 117.809C115.864 117.809 110.094 117.152 115.566 109.097C116.057 108.372 116.641 107.591 117.326 106.744L131.991 99.5473L131.855 98.5797L128.732 76.5624L127.525 68.0408L136.729 59.485L138.486 57.8506L161.846 79.4555L161.679 79.7629L151.914 97.4112L144.161 111.427Z" fill="#FFB7B7"/>
<path d="M133.698 105.01L105.401 111.392C104.976 111.344 104.567 111.207 104.199 110.988C103.831 110.77 103.514 110.477 103.268 110.127C103.022 109.777 102.854 109.379 102.773 108.959C102.692 108.539 102.702 108.107 102.801 107.691C102.938 106.868 103.195 106.07 103.565 105.323C104.464 103.533 105.571 101.857 106.863 100.327L121.528 93.1306L119.73 80.4503L118.834 74.1267L118.254 70.0383L117.062 61.6241L128.024 51.4339L139.962 62.4724L151.383 73.0389L149.842 75.8207L148.004 79.1455L139.184 95.0948L137.387 98.3438L133.698 105.01Z" fill="#FFB7B7"/>
<path d="M183.552 100.452C183.552 100.452 176.563 99.7435 173.949 92.5473C173.122 90.1664 172.803 87.4521 173.037 84.7824L170.189 76.2123L166.135 64.0013L155.793 61.5159L155.254 62.2447L147.755 72.3846L145.461 75.4872L141.918 80.2823L124.738 103.515C124.053 105.37 123.175 107.041 122.136 108.464C121.181 109.813 120.13 110.995 119.003 111.989C115.725 114.884 110.824 117.135 103.778 115.953L66.6305 131L63 93.0823L94.157 77.4907L139.85 32L170.696 44.0145L185 74.927L183.552 100.452Z" fill="#FFB7B7"/>
<path d="M343.14 0H145.78C145.022 0.000848667 144.295 0.302442 143.759 0.838599C143.222 1.37476 142.921 2.1017 142.92 2.85994V119.709C142.921 120.467 143.222 121.194 143.759 121.73C144.295 122.266 145.022 122.568 145.78 122.569H343.14C343.898 122.568 344.625 122.266 345.161 121.73C345.698 121.194 345.999 120.467 346 119.709V2.85992C345.999 2.1017 345.697 1.37478 345.161 0.838632C344.625 0.302484 343.898 0.000882202 343.14 0Z" fill="white"/>
<path d="M343.14 0H145.78C145.022 0.000848667 144.295 0.302442 143.759 0.838599C143.222 1.37476 142.921 2.1017 142.92 2.85994V119.709C142.921 120.467 143.222 121.194 143.759 121.73C144.295 122.266 145.022 122.568 145.78 122.569H343.14C343.898 122.568 344.625 122.266 345.161 121.73C345.698 121.194 345.999 120.467 346 119.709V2.85992C345.999 2.1017 345.697 1.37478 345.161 0.838632C344.625 0.302484 343.898 0.000882202 343.14 0ZM345.183 119.709C345.183 120.25 344.967 120.77 344.584 121.153C344.201 121.536 343.682 121.751 343.14 121.752H145.78C145.238 121.751 144.719 121.536 144.336 121.153C143.953 120.77 143.737 120.25 143.737 119.709V2.85992C143.737 2.31821 143.953 1.79875 144.336 1.4157C144.719 1.03265 145.238 0.817356 145.78 0.817124H343.14C343.682 0.817355 344.201 1.03265 344.584 1.4157C344.967 1.79875 345.183 2.31821 345.183 2.85992V119.709Z" fill="#3F3D56"/>
<path d="M164.983 15.9348C164.014 15.9348 163.066 15.6473 162.259 15.1086C161.453 14.5698 160.825 13.8041 160.453 12.9083C160.082 12.0124 159.985 11.0266 160.174 10.0756C160.364 9.12455 160.831 8.25098 161.516 7.56532C162.202 6.87966 163.076 6.41272 164.027 6.22354C164.978 6.03437 165.964 6.13145 166.86 6.50253C167.756 6.87361 168.522 7.50201 169.06 8.30826C169.599 9.11451 169.887 10.0624 169.887 11.0321C169.887 12.3324 169.37 13.5794 168.451 14.4988C167.531 15.4183 166.284 15.9348 164.983 15.9348ZM164.983 6.94645C164.175 6.94645 163.385 7.18607 162.713 7.63501C162.041 8.08394 161.518 8.72202 161.208 9.46858C160.899 10.2151 160.818 11.0366 160.976 11.8291C161.134 12.6217 161.523 13.3497 162.094 13.9211C162.666 14.4924 163.394 14.8815 164.186 15.0392C164.979 15.1968 165.801 15.1159 166.547 14.8067C167.294 14.4975 167.932 13.9738 168.381 13.3019C168.83 12.63 169.07 11.8401 169.07 11.0321C169.07 10.4956 168.964 9.96427 168.759 9.46858C168.553 8.97288 168.252 8.52249 167.873 8.14311C167.493 7.76372 167.043 7.46278 166.547 7.25746C166.051 7.05213 165.52 6.94645 164.983 6.94645Z" fill="#004A83"/>
<path d="M157.362 11.0321C157.362 10.0969 157.654 9.18498 158.197 8.42346C158.74 7.66194 159.507 7.0887 160.391 6.78361C159.714 6.55008 158.991 6.48169 158.282 6.58413C157.573 6.68657 156.899 6.95687 156.316 7.37253C155.733 7.78819 155.258 8.33716 154.93 8.97372C154.602 9.61028 154.43 10.316 154.43 11.0321C154.43 11.7482 154.602 12.4539 154.93 13.0904C155.258 13.727 155.733 14.276 156.316 14.6916C156.899 15.1073 157.573 15.3776 158.282 15.48C158.991 15.5825 159.714 15.5141 160.391 15.2805C159.507 14.9755 158.74 14.4022 158.197 13.6407C157.654 12.8792 157.362 11.9673 157.362 11.0321Z" fill="#004A83"/>
<path d="M209.793 109.882H156.902C156.577 109.882 156.255 109.819 155.955 109.695C155.655 109.571 155.382 109.389 155.152 109.159C154.922 108.93 154.74 108.657 154.615 108.357C154.491 108.057 154.427 107.736 154.427 107.411C154.427 107.086 154.491 106.765 154.615 106.465C154.74 106.165 154.922 105.892 155.152 105.663C155.382 105.433 155.655 105.251 155.955 105.127C156.255 105.003 156.577 104.94 156.902 104.94H209.793C210.447 104.941 211.075 105.202 211.537 105.665C212 106.128 212.26 106.756 212.26 107.411C212.26 108.066 212 108.693 211.537 109.157C211.075 109.62 210.447 109.881 209.793 109.882Z" fill="#E6E6E6"/>
<path d="M192.835 99.259H173.859C173.204 99.259 172.575 98.9988 172.112 98.5354C171.648 98.072 171.388 97.4436 171.388 96.7883C171.388 96.133 171.648 95.5046 172.112 95.0412C172.575 94.5779 173.204 94.3176 173.859 94.3176H192.835C193.49 94.3176 194.119 94.5779 194.582 95.0412C195.046 95.5046 195.306 96.133 195.306 96.7883C195.306 97.4436 195.046 98.072 194.582 98.5354C194.119 98.9988 193.49 99.259 192.835 99.259Z" fill="#E6E6E6"/>
<path d="M345.036 24.424H143.59V25.2411H345.036V24.424Z" fill="#3F3D56"/>
<path opacity="0.15" d="M120.556 107.284L120.128 106.317L137.593 98.5723L141.756 83.9678L135.48 78.8942L136.145 78.0709L142.966 83.5848L138.475 99.3389L120.556 107.284Z" fill="black"/>
<path opacity="0.1" d="M103.566 105.323L98.9749 107.558L89.7171 108.539C88.2684 109.883 86.6743 111.061 84.9643 112.052L76.8459 111.783L63.1342 111.353L109.489 71.8318L118.834 74.1267C118.834 74.1267 103.133 106.245 103.566 105.323Z" fill="black"/>
<path d="M168.326 92.6747C167.109 92.909 165.775 93.103 164.301 93.2514C156.69 94.0123 140.603 95.0236 139.184 95.0948C129.655 95.5432 123.664 95.538 123.664 95.538L103.566 105.323L98.9748 107.558L61.7648 111.499L112.151 68.5401L118.254 70.0383L128.585 72.5787L139.966 75.3765L149.842 75.8207L162.62 76.3938L172.949 76.8576C174.739 76.9197 176.431 77.6872 177.657 78.9927C178.882 80.2982 179.541 82.0354 179.49 83.8251C179.327 87.2321 176.964 90.9963 168.326 92.6747Z" fill="#FFB7B7"/>
<path opacity="0.15" d="M172.243 90.0847C172.078 90.0344 168.198 88.8139 166.966 85.3985C166.138 83.1022 166.721 80.4153 168.698 77.4125L169.582 77.9943C167.8 80.7006 167.254 83.0689 167.96 85.0332C169.006 87.9489 172.518 89.0619 172.553 89.0728L172.243 90.0847Z" fill="black"/>
<path opacity="0.15" d="M122.038 95.7401L104.256 104.4L104.719 105.351L122.501 96.6915L122.038 95.7401Z" fill="black"/>
<path opacity="0.15" d="M115.398 71.1867L140.586 61.2538L140.975 62.2385L119.208 70.8222L137.707 74.2773L137.512 75.3175L115.398 71.1867Z" fill="black"/>
<path d="M185.996 45V36.54H191.54V37.536H187.208V40.2H191.264V41.208H187.208V43.992H191.54V45H185.996ZM195.484 45.108C194.98 45.108 194.516 45.044 194.092 44.916C193.668 44.788 193.316 44.608 193.036 44.376L193.408 43.548C193.704 43.772 194.032 43.94 194.392 44.052C194.752 44.164 195.12 44.22 195.496 44.22C195.936 44.22 196.268 44.144 196.492 43.992C196.716 43.832 196.828 43.616 196.828 43.344C196.828 43.136 196.756 42.968 196.612 42.84C196.476 42.712 196.248 42.616 195.928 42.552L194.776 42.324C194.264 42.212 193.876 42.02 193.612 41.748C193.348 41.476 193.216 41.128 193.216 40.704C193.216 40.344 193.312 40.024 193.504 39.744C193.704 39.464 193.984 39.244 194.344 39.084C194.712 38.924 195.14 38.844 195.628 38.844C196.076 38.844 196.492 38.908 196.876 39.036C197.26 39.164 197.58 39.348 197.836 39.588L197.452 40.392C197.204 40.184 196.924 40.024 196.612 39.912C196.3 39.792 195.984 39.732 195.664 39.732C195.216 39.732 194.884 39.816 194.668 39.984C194.452 40.152 194.344 40.372 194.344 40.644C194.344 40.852 194.408 41.024 194.536 41.16C194.672 41.288 194.884 41.388 195.172 41.46L196.324 41.688C196.868 41.8 197.276 41.984 197.548 42.24C197.82 42.496 197.956 42.84 197.956 43.272C197.956 43.648 197.852 43.976 197.644 44.256C197.436 44.536 197.148 44.748 196.78 44.892C196.412 45.036 195.98 45.108 195.484 45.108ZM202.178 45.108C201.522 45.108 201.026 44.932 200.69 44.58C200.354 44.22 200.186 43.684 200.186 42.972V39.888H199.01V38.952H200.186V37.356L201.398 37.032V38.952H203.078V39.888H201.398V42.864C201.398 43.312 201.478 43.632 201.638 43.824C201.798 44.016 202.03 44.112 202.334 44.112C202.486 44.112 202.618 44.1 202.73 44.076C202.85 44.044 202.958 44.008 203.054 43.968V44.952C202.934 45 202.794 45.036 202.634 45.06C202.474 45.092 202.322 45.108 202.178 45.108ZM204.685 45V38.952H205.897V45H204.685ZM204.589 37.692V36.432H205.993V37.692H204.589ZM208.173 45V40.404C208.173 40.172 208.161 39.936 208.137 39.696C208.121 39.448 208.101 39.2 208.077 38.952H209.253L209.361 40.224H209.217C209.385 39.784 209.641 39.444 209.985 39.204C210.337 38.964 210.757 38.844 211.245 38.844C211.741 38.844 212.145 38.964 212.457 39.204C212.777 39.436 212.997 39.796 213.117 40.284H212.925C213.085 39.844 213.357 39.496 213.741 39.24C214.125 38.976 214.569 38.844 215.073 38.844C215.745 38.844 216.249 39.04 216.585 39.432C216.921 39.824 217.089 40.432 217.089 41.256V45H215.877V41.316C215.877 40.788 215.785 40.408 215.601 40.176C215.425 39.936 215.137 39.816 214.737 39.816C214.273 39.816 213.905 39.976 213.633 40.296C213.361 40.616 213.225 41.048 213.225 41.592V45H212.013V41.316C212.013 40.788 211.921 40.408 211.737 40.176C211.561 39.936 211.273 39.816 210.873 39.816C210.409 39.816 210.045 39.976 209.781 40.296C209.517 40.616 209.385 41.048 209.385 41.592V45H208.173ZM221.642 45.108C221.106 45.108 220.638 44.984 220.238 44.736C219.838 44.488 219.526 44.128 219.302 43.656C219.086 43.184 218.978 42.624 218.978 41.976C218.978 41.32 219.086 40.76 219.302 40.296C219.526 39.832 219.838 39.476 220.238 39.228C220.638 38.972 221.106 38.844 221.642 38.844C222.17 38.844 222.63 38.976 223.022 39.24C223.414 39.504 223.674 39.864 223.802 40.32H223.67L223.79 38.952H224.966C224.942 39.2 224.918 39.448 224.894 39.696C224.878 39.936 224.87 40.172 224.87 40.404V45H223.658V43.656H223.79C223.662 44.104 223.398 44.46 222.998 44.724C222.606 44.98 222.154 45.108 221.642 45.108ZM221.942 44.16C222.462 44.16 222.878 43.976 223.19 43.608C223.51 43.24 223.67 42.696 223.67 41.976C223.67 41.256 223.51 40.716 223.19 40.356C222.878 39.988 222.462 39.804 221.942 39.804C221.414 39.804 220.99 39.988 220.67 40.356C220.358 40.716 220.201 41.256 220.201 41.976C220.201 42.696 220.358 43.24 220.67 43.608C220.982 43.976 221.406 44.16 221.942 44.16ZM229.49 45.108C228.834 45.108 228.338 44.932 228.002 44.58C227.666 44.22 227.498 43.684 227.498 42.972V39.888H226.322V38.952H227.498V37.356L228.71 37.032V38.952H230.39V39.888H228.71V42.864C228.71 43.312 228.79 43.632 228.95 43.824C229.11 44.016 229.342 44.112 229.646 44.112C229.798 44.112 229.93 44.1 230.042 44.076C230.162 44.044 230.27 44.008 230.366 43.968V44.952C230.246 45 230.106 45.036 229.946 45.06C229.786 45.092 229.634 45.108 229.49 45.108ZM234.735 45.108C233.759 45.108 232.991 44.832 232.431 44.28C231.871 43.728 231.591 42.964 231.591 41.988C231.591 41.356 231.711 40.804 231.951 40.332C232.199 39.86 232.539 39.496 232.971 39.24C233.411 38.976 233.919 38.844 234.495 38.844C235.063 38.844 235.539 38.964 235.923 39.204C236.307 39.444 236.599 39.784 236.799 40.224C236.999 40.656 237.099 41.168 237.099 41.76V42.144H232.539V41.448H236.271L236.067 41.604C236.067 41.004 235.931 40.54 235.659 40.212C235.395 39.876 235.011 39.708 234.507 39.708C233.947 39.708 233.515 39.904 233.211 40.296C232.907 40.68 232.755 41.212 232.755 41.892V42.012C232.755 42.724 232.927 43.26 233.271 43.62C233.623 43.98 234.119 44.16 234.759 44.16C235.111 44.16 235.439 44.112 235.743 44.016C236.055 43.912 236.351 43.744 236.631 43.512L237.027 44.34C236.747 44.588 236.407 44.78 236.007 44.916C235.607 45.044 235.183 45.108 234.735 45.108ZM241.306 45.108C240.778 45.108 240.31 44.984 239.902 44.736C239.502 44.488 239.19 44.128 238.966 43.656C238.75 43.184 238.642 42.624 238.642 41.976C238.642 41.32 238.75 40.76 238.966 40.296C239.19 39.832 239.502 39.476 239.902 39.228C240.31 38.972 240.778 38.844 241.306 38.844C241.826 38.844 242.282 38.976 242.674 39.24C243.074 39.496 243.338 39.848 243.466 40.296H243.322V36.168H244.534V45H243.334V43.632H243.478C243.342 44.088 243.078 44.448 242.686 44.712C242.294 44.976 241.834 45.108 241.306 45.108ZM241.606 44.16C242.126 44.16 242.546 43.976 242.866 43.608C243.186 43.24 243.346 42.696 243.346 41.976C243.346 41.256 243.186 40.716 242.866 40.356C242.546 39.988 242.126 39.804 241.606 39.804C241.078 39.804 240.654 39.988 240.334 40.356C240.022 40.716 239.866 41.256 239.866 41.976C239.866 42.696 240.022 43.24 240.334 43.608C240.654 43.976 241.078 44.16 241.606 44.16ZM250.609 45V36.54H254.137C255.049 36.54 255.749 36.732 256.237 37.116C256.733 37.5 256.981 38.04 256.981 38.736C256.981 39.256 256.825 39.692 256.513 40.044C256.201 40.396 255.773 40.632 255.229 40.752V40.572C255.853 40.652 256.337 40.872 256.681 41.232C257.025 41.592 257.197 42.068 257.197 42.66C257.197 43.412 256.941 43.992 256.429 44.4C255.925 44.8 255.213 45 254.293 45H250.609ZM251.821 44.028H254.161C254.729 44.028 255.173 43.92 255.493 43.704C255.821 43.488 255.985 43.124 255.985 42.612C255.985 42.1 255.821 41.736 255.493 41.52C255.173 41.304 254.729 41.196 254.161 41.196H251.821V44.028ZM251.821 40.236H253.945C254.553 40.236 255.009 40.12 255.313 39.888C255.617 39.656 255.769 39.316 255.769 38.868C255.769 38.42 255.617 38.08 255.313 37.848C255.009 37.616 254.553 37.5 253.945 37.5H251.821V40.236ZM261.364 45.108C260.636 45.108 260.088 44.912 259.72 44.52C259.36 44.12 259.18 43.508 259.18 42.684V38.952H260.392V42.66C260.392 43.164 260.496 43.536 260.704 43.776C260.912 44.016 261.228 44.136 261.652 44.136C262.132 44.136 262.52 43.976 262.816 43.656C263.112 43.336 263.26 42.912 263.26 42.384V38.952H264.472V45H263.296V43.704H263.452C263.284 44.152 263.016 44.5 262.648 44.748C262.28 44.988 261.852 45.108 261.364 45.108ZM269.063 45.108C268.535 45.108 268.067 44.984 267.659 44.736C267.259 44.488 266.947 44.128 266.723 43.656C266.507 43.184 266.399 42.624 266.399 41.976C266.399 41.32 266.507 40.76 266.723 40.296C266.947 39.832 267.259 39.476 267.659 39.228C268.067 38.972 268.535 38.844 269.063 38.844C269.583 38.844 270.039 38.976 270.431 39.24C270.831 39.496 271.095 39.848 271.223 40.296H271.079V36.168H272.291V45H271.091V43.632H271.235C271.099 44.088 270.835 44.448 270.443 44.712C270.051 44.976 269.591 45.108 269.063 45.108ZM269.363 44.16C269.883 44.16 270.303 43.976 270.623 43.608C270.943 43.24 271.103 42.696 271.103 41.976C271.103 41.256 270.943 40.716 270.623 40.356C270.303 39.988 269.883 39.804 269.363 39.804C268.835 39.804 268.411 39.988 268.091 40.356C267.779 40.716 267.623 41.256 267.623 41.976C267.623 42.696 267.779 43.24 268.091 43.608C268.411 43.976 268.835 44.16 269.363 44.16ZM277.284 47.688C276.74 47.688 276.244 47.624 275.796 47.496C275.356 47.368 274.96 47.176 274.608 46.92L274.908 46.032C275.156 46.2 275.4 46.332 275.64 46.428C275.88 46.532 276.132 46.608 276.396 46.656C276.66 46.704 276.932 46.728 277.212 46.728C277.788 46.728 278.22 46.58 278.508 46.284C278.804 45.996 278.952 45.576 278.952 45.024V43.404H279.072C278.944 43.852 278.68 44.208 278.28 44.472C277.888 44.728 277.432 44.856 276.912 44.856C276.36 44.856 275.88 44.736 275.472 44.496C275.072 44.248 274.76 43.9 274.536 43.452C274.32 42.996 274.212 42.46 274.212 41.844C274.212 41.228 274.32 40.696 274.536 40.248C274.76 39.8 275.072 39.456 275.472 39.216C275.88 38.968 276.36 38.844 276.912 38.844C277.44 38.844 277.896 38.976 278.28 39.24C278.672 39.496 278.932 39.848 279.06 40.296L278.952 40.2L279.06 38.952H280.236C280.204 39.2 280.18 39.448 280.164 39.696C280.148 39.936 280.14 40.172 280.14 40.404V44.88C280.14 45.792 279.896 46.488 279.408 46.968C278.928 47.448 278.22 47.688 277.284 47.688ZM277.2 43.908C277.728 43.908 278.148 43.728 278.46 43.368C278.78 43.008 278.94 42.5 278.94 41.844C278.94 41.188 278.78 40.684 278.46 40.332C278.148 39.98 277.728 39.804 277.2 39.804C276.656 39.804 276.224 39.98 275.904 40.332C275.592 40.684 275.436 41.188 275.436 41.844C275.436 42.5 275.592 43.008 275.904 43.368C276.224 43.728 276.656 43.908 277.2 43.908ZM285.204 45.108C284.228 45.108 283.46 44.832 282.9 44.28C282.34 43.728 282.06 42.964 282.06 41.988C282.06 41.356 282.18 40.804 282.42 40.332C282.668 39.86 283.008 39.496 283.44 39.24C283.88 38.976 284.388 38.844 284.964 38.844C285.532 38.844 286.008 38.964 286.392 39.204C286.776 39.444 287.068 39.784 287.268 40.224C287.468 40.656 287.568 41.168 287.568 41.76V42.144H283.008V41.448H286.74L286.536 41.604C286.536 41.004 286.4 40.54 286.128 40.212C285.864 39.876 285.48 39.708 284.976 39.708C284.416 39.708 283.984 39.904 283.68 40.296C283.376 40.68 283.224 41.212 283.224 41.892V42.012C283.224 42.724 283.396 43.26 283.74 43.62C284.092 43.98 284.588 44.16 285.228 44.16C285.58 44.16 285.908 44.112 286.212 44.016C286.524 43.912 286.82 43.744 287.1 43.512L287.496 44.34C287.216 44.588 286.876 44.78 286.476 44.916C286.076 45.044 285.652 45.108 285.204 45.108ZM291.799 45.108C291.143 45.108 290.647 44.932 290.311 44.58C289.975 44.22 289.807 43.684 289.807 42.972V39.888H288.631V38.952H289.807V37.356L291.019 37.032V38.952H292.699V39.888H291.019V42.864C291.019 43.312 291.099 43.632 291.259 43.824C291.419 44.016 291.651 44.112 291.955 44.112C292.107 44.112 292.239 44.1 292.351 44.076C292.471 44.044 292.579 44.008 292.675 43.968V44.952C292.555 45 292.415 45.036 292.255 45.06C292.095 45.092 291.943 45.108 291.799 45.108Z" fill="#025EA4"/>
<path d="M266.211 99.3125V105H265.895V99.3125H266.211ZM268.059 101.676V105H267.75V100.773H268.055L268.059 101.676ZM268 102.562L267.848 102.383C267.871 102.159 267.926 101.945 268.012 101.742C268.1 101.539 268.216 101.359 268.359 101.203C268.505 101.047 268.674 100.923 268.867 100.832C269.062 100.741 269.277 100.695 269.512 100.695C269.723 100.695 269.911 100.725 270.078 100.785C270.245 100.842 270.385 100.934 270.5 101.059C270.617 101.184 270.706 101.345 270.766 101.543C270.826 101.738 270.855 101.977 270.855 102.258V105H270.547V102.258C270.547 101.924 270.501 101.667 270.41 101.484C270.319 101.299 270.191 101.169 270.027 101.094C269.866 101.018 269.677 100.98 269.461 100.98C269.211 100.98 268.995 101.036 268.812 101.148C268.633 101.258 268.484 101.397 268.367 101.566C268.25 101.733 268.16 101.906 268.098 102.086C268.038 102.266 268.005 102.424 268 102.562ZM273.625 104.793C273.836 104.793 274.035 104.754 274.223 104.676C274.413 104.598 274.57 104.479 274.695 104.32C274.823 104.159 274.895 103.954 274.91 103.707H275.215C275.202 103.988 275.121 104.232 274.973 104.438C274.824 104.641 274.633 104.798 274.398 104.91C274.164 105.022 273.906 105.078 273.625 105.078C273.344 105.078 273.092 105.026 272.871 104.922C272.652 104.818 272.469 104.671 272.32 104.48C272.172 104.29 272.059 104.068 271.98 103.812C271.905 103.555 271.867 103.273 271.867 102.969V102.805C271.867 102.5 271.905 102.22 271.98 101.965C272.059 101.707 272.172 101.483 272.32 101.293C272.469 101.103 272.651 100.956 272.867 100.852C273.086 100.747 273.336 100.695 273.617 100.695C273.901 100.695 274.161 100.754 274.398 100.871C274.635 100.986 274.827 101.154 274.973 101.375C275.121 101.594 275.202 101.862 275.215 102.18H274.91C274.897 101.919 274.831 101.701 274.711 101.523C274.591 101.346 274.435 101.212 274.242 101.121C274.049 101.027 273.841 100.98 273.617 100.98C273.367 100.98 273.151 101.029 272.969 101.125C272.786 101.221 272.637 101.354 272.52 101.523C272.402 101.69 272.316 101.884 272.262 102.105C272.207 102.324 272.18 102.557 272.18 102.805V102.969C272.18 103.219 272.207 103.454 272.262 103.676C272.316 103.895 272.402 104.087 272.52 104.254C272.637 104.421 272.786 104.552 272.969 104.648C273.154 104.745 273.372 104.793 273.625 104.793ZM276.59 99V105H276.277V99H276.59ZM280.723 104.023V100.773H281.035V105H280.727L280.723 104.023ZM280.777 103.305L280.98 103.297C280.98 103.555 280.948 103.792 280.883 104.008C280.82 104.224 280.721 104.413 280.586 104.574C280.453 104.733 280.281 104.857 280.07 104.945C279.859 105.034 279.607 105.078 279.312 105.078C279.107 105.078 278.918 105.049 278.746 104.992C278.577 104.932 278.43 104.839 278.305 104.711C278.182 104.583 278.087 104.417 278.02 104.211C277.954 104.005 277.922 103.757 277.922 103.465V100.773H278.23V103.473C278.23 103.717 278.258 103.924 278.312 104.094C278.37 104.263 278.448 104.398 278.547 104.5C278.646 104.602 278.762 104.676 278.895 104.723C279.027 104.767 279.172 104.789 279.328 104.789C279.693 104.789 279.98 104.719 280.191 104.578C280.405 104.438 280.556 104.254 280.645 104.027C280.733 103.801 280.777 103.56 280.777 103.305ZM284.906 103.949C284.906 103.824 284.872 103.701 284.805 103.578C284.74 103.456 284.618 103.341 284.441 103.234C284.267 103.128 284.013 103.038 283.68 102.965C283.443 102.913 283.233 102.855 283.051 102.793C282.871 102.73 282.72 102.655 282.598 102.566C282.475 102.475 282.383 102.367 282.32 102.242C282.26 102.117 282.23 101.967 282.23 101.793C282.23 101.642 282.263 101.5 282.328 101.367C282.393 101.234 282.488 101.118 282.613 101.02C282.741 100.918 282.893 100.839 283.07 100.781C283.247 100.724 283.448 100.695 283.672 100.695C283.992 100.695 284.266 100.749 284.492 100.855C284.721 100.96 284.897 101.104 285.02 101.289C285.142 101.471 285.203 101.684 285.203 101.926H284.891C284.891 101.762 284.844 101.608 284.75 101.465C284.656 101.322 284.518 101.206 284.336 101.117C284.156 101.026 283.935 100.98 283.672 100.98C283.406 100.98 283.19 101.021 283.023 101.102C282.857 101.182 282.734 101.285 282.656 101.41C282.581 101.533 282.543 101.658 282.543 101.785C282.543 101.887 282.557 101.982 282.586 102.07C282.617 102.156 282.676 102.236 282.762 102.309C282.848 102.382 282.971 102.452 283.133 102.52C283.294 102.585 283.504 102.646 283.762 102.703C284.1 102.779 284.376 102.871 284.59 102.98C284.803 103.087 284.961 103.219 285.062 103.375C285.164 103.529 285.215 103.717 285.215 103.941C285.215 104.108 285.18 104.262 285.109 104.402C285.039 104.54 284.938 104.66 284.805 104.762C284.674 104.863 284.516 104.941 284.328 104.996C284.141 105.051 283.932 105.078 283.703 105.078C283.357 105.078 283.062 105.023 282.82 104.914C282.581 104.802 282.398 104.655 282.273 104.473C282.151 104.29 282.09 104.094 282.09 103.883H282.402C282.421 104.115 282.496 104.297 282.629 104.43C282.764 104.562 282.928 104.656 283.121 104.711C283.316 104.766 283.51 104.793 283.703 104.793C283.966 104.793 284.186 104.753 284.363 104.672C284.543 104.589 284.678 104.483 284.77 104.355C284.861 104.225 284.906 104.09 284.906 103.949ZM286.699 100.773V105H286.387V100.773H286.699ZM286.289 99.4922C286.289 99.4219 286.312 99.362 286.359 99.3125C286.409 99.2604 286.471 99.2344 286.547 99.2344C286.62 99.2344 286.681 99.2604 286.73 99.3125C286.78 99.362 286.805 99.4219 286.805 99.4922C286.805 99.5625 286.78 99.6224 286.73 99.6719C286.681 99.7188 286.62 99.7422 286.547 99.7422C286.471 99.7422 286.409 99.7188 286.359 99.6719C286.312 99.6224 286.289 99.5625 286.289 99.4922ZM289.27 104.672L290.746 100.773H291.074L289.453 105H289.199L289.27 104.672ZM287.887 100.773L289.371 104.68L289.438 105H289.18L287.559 100.773H287.887ZM293.395 105.078C293.129 105.078 292.883 105.027 292.656 104.926C292.43 104.822 292.232 104.677 292.062 104.492C291.893 104.305 291.76 104.083 291.664 103.828C291.57 103.573 291.523 103.293 291.523 102.988V102.816C291.523 102.501 291.57 102.215 291.664 101.957C291.76 101.697 291.891 101.473 292.055 101.285C292.219 101.095 292.408 100.949 292.621 100.848C292.837 100.746 293.068 100.695 293.312 100.695C293.56 100.695 293.784 100.741 293.984 100.832C294.185 100.923 294.357 101.051 294.5 101.215C294.643 101.379 294.753 101.574 294.828 101.801C294.904 102.027 294.941 102.277 294.941 102.551V102.812H291.719V102.527H294.633V102.477C294.63 102.211 294.576 101.965 294.469 101.738C294.365 101.512 294.215 101.329 294.02 101.191C293.824 101.051 293.589 100.98 293.312 100.98C293.091 100.98 292.889 101.027 292.707 101.121C292.527 101.215 292.372 101.345 292.242 101.512C292.112 101.676 292.012 101.87 291.941 102.094C291.871 102.315 291.836 102.556 291.836 102.816V102.988C291.836 103.238 291.875 103.473 291.953 103.691C292.031 103.91 292.141 104.103 292.281 104.27C292.422 104.434 292.587 104.562 292.777 104.656C292.967 104.75 293.176 104.797 293.402 104.797C293.647 104.797 293.871 104.754 294.074 104.668C294.277 104.582 294.462 104.431 294.629 104.215L294.832 104.367C294.738 104.503 294.625 104.624 294.492 104.73C294.359 104.837 294.202 104.922 294.02 104.984C293.84 105.047 293.632 105.078 293.395 105.078ZM297.539 102.961V102.812C297.539 102.503 297.583 102.219 297.672 101.961C297.763 101.703 297.891 101.48 298.055 101.293C298.219 101.103 298.414 100.956 298.641 100.852C298.87 100.747 299.124 100.695 299.402 100.695C299.681 100.695 299.935 100.747 300.164 100.852C300.393 100.956 300.59 101.103 300.754 101.293C300.921 101.48 301.048 101.703 301.137 101.961C301.225 102.219 301.27 102.503 301.27 102.812V102.961C301.27 103.271 301.225 103.555 301.137 103.812C301.048 104.07 300.922 104.294 300.758 104.484C300.594 104.672 300.397 104.818 300.168 104.922C299.941 105.026 299.689 105.078 299.41 105.078C299.129 105.078 298.874 105.026 298.645 104.922C298.418 104.818 298.221 104.672 298.055 104.484C297.891 104.294 297.763 104.07 297.672 103.812C297.583 103.555 297.539 103.271 297.539 102.961ZM297.852 102.812V102.961C297.852 103.206 297.885 103.439 297.953 103.66C298.023 103.879 298.125 104.074 298.258 104.246C298.391 104.415 298.553 104.549 298.746 104.648C298.939 104.745 299.16 104.793 299.41 104.793C299.655 104.793 299.874 104.745 300.066 104.648C300.259 104.549 300.421 104.415 300.551 104.246C300.684 104.074 300.784 103.879 300.852 103.66C300.922 103.439 300.957 103.206 300.957 102.961V102.812C300.957 102.573 300.922 102.344 300.852 102.125C300.784 101.906 300.684 101.711 300.551 101.539C300.418 101.367 300.255 101.232 300.062 101.133C299.87 101.031 299.65 100.98 299.402 100.98C299.155 100.98 298.935 101.031 298.742 101.133C298.552 101.232 298.389 101.367 298.254 101.539C298.121 101.711 298.021 101.906 297.953 102.125C297.885 102.344 297.852 102.573 297.852 102.812ZM302.91 105H302.602V100.203C302.602 99.9245 302.647 99.6901 302.738 99.5C302.832 99.3099 302.965 99.1654 303.137 99.0664C303.311 98.9674 303.52 98.918 303.762 98.918C303.842 98.918 303.926 98.9232 304.012 98.9336C304.098 98.9414 304.181 98.9583 304.262 98.9844L304.227 99.2617C304.159 99.2435 304.091 99.2305 304.023 99.2227C303.958 99.2122 303.876 99.207 303.777 99.207C303.598 99.207 303.443 99.2461 303.312 99.3242C303.185 99.4023 303.086 99.5156 303.016 99.6641C302.945 99.8099 302.91 99.9896 302.91 100.203V105ZM303.984 100.773V101.055H301.879V100.773H303.984ZM309.395 104.223V102.039C309.395 101.818 309.348 101.628 309.254 101.469C309.16 101.31 309.023 101.189 308.844 101.105C308.664 101.02 308.444 100.977 308.184 100.977C307.941 100.977 307.724 101.02 307.531 101.105C307.341 101.189 307.191 101.303 307.082 101.449C306.973 101.595 306.918 101.758 306.918 101.938L306.605 101.934C306.605 101.772 306.643 101.617 306.719 101.469C306.797 101.32 306.906 101.189 307.047 101.074C307.19 100.957 307.358 100.865 307.551 100.797C307.746 100.729 307.96 100.695 308.191 100.695C308.488 100.695 308.75 100.746 308.977 100.848C309.206 100.947 309.384 101.096 309.512 101.297C309.639 101.497 309.703 101.747 309.703 102.047V104.133C309.703 104.284 309.714 104.436 309.734 104.59C309.755 104.743 309.784 104.867 309.82 104.961V105H309.48C309.452 104.901 309.43 104.78 309.414 104.637C309.401 104.493 309.395 104.355 309.395 104.223ZM309.496 102.602L309.504 102.871H308.473C308.212 102.871 307.979 102.896 307.773 102.945C307.568 102.995 307.393 103.065 307.25 103.156C307.107 103.247 306.997 103.355 306.922 103.48C306.846 103.605 306.809 103.746 306.809 103.902C306.809 104.064 306.852 104.212 306.938 104.348C307.023 104.483 307.145 104.591 307.301 104.672C307.457 104.75 307.638 104.789 307.844 104.789C308.125 104.789 308.374 104.741 308.59 104.645C308.809 104.546 308.992 104.413 309.141 104.246C309.289 104.077 309.397 103.882 309.465 103.66L309.602 103.887C309.557 104.025 309.488 104.164 309.395 104.305C309.301 104.445 309.18 104.574 309.031 104.691C308.883 104.806 308.708 104.9 308.508 104.973C308.307 105.043 308.079 105.078 307.824 105.078C307.556 105.078 307.322 105.029 307.121 104.93C306.923 104.828 306.77 104.69 306.66 104.516C306.551 104.339 306.496 104.137 306.496 103.91C306.496 103.715 306.54 103.536 306.629 103.375C306.717 103.214 306.845 103.076 307.012 102.961C307.181 102.844 307.385 102.755 307.625 102.695C307.867 102.633 308.139 102.602 308.441 102.602H309.496ZM311.387 99V105H311.074V99H311.387ZM313.098 99V105H312.785V99H313.098ZM317.875 100.773V101.055H315.852V100.773H317.875ZM316.633 99.6562H316.945V103.98C316.945 104.207 316.973 104.379 317.027 104.496C317.085 104.611 317.159 104.689 317.25 104.73C317.344 104.77 317.444 104.789 317.551 104.789C317.626 104.789 317.695 104.785 317.758 104.777C317.823 104.77 317.888 104.76 317.953 104.75L317.98 105.023C317.923 105.042 317.849 105.055 317.758 105.062C317.667 105.073 317.586 105.078 317.516 105.078C317.339 105.078 317.184 105.046 317.051 104.98C316.918 104.915 316.815 104.803 316.742 104.645C316.669 104.483 316.633 104.262 316.633 103.98V99.6562ZM321.543 104.223V102.039C321.543 101.818 321.496 101.628 321.402 101.469C321.309 101.31 321.172 101.189 320.992 101.105C320.812 101.02 320.592 100.977 320.332 100.977C320.09 100.977 319.872 101.02 319.68 101.105C319.49 101.189 319.34 101.303 319.23 101.449C319.121 101.595 319.066 101.758 319.066 101.938L318.754 101.934C318.754 101.772 318.792 101.617 318.867 101.469C318.945 101.32 319.055 101.189 319.195 101.074C319.339 100.957 319.507 100.865 319.699 100.797C319.895 100.729 320.108 100.695 320.34 100.695C320.637 100.695 320.898 100.746 321.125 100.848C321.354 100.947 321.533 101.096 321.66 101.297C321.788 101.497 321.852 101.747 321.852 102.047V104.133C321.852 104.284 321.862 104.436 321.883 104.59C321.904 104.743 321.932 104.867 321.969 104.961V105H321.629C321.6 104.901 321.578 104.78 321.562 104.637C321.549 104.493 321.543 104.355 321.543 104.223ZM321.645 102.602L321.652 102.871H320.621C320.361 102.871 320.128 102.896 319.922 102.945C319.716 102.995 319.542 103.065 319.398 103.156C319.255 103.247 319.146 103.355 319.07 103.48C318.995 103.605 318.957 103.746 318.957 103.902C318.957 104.064 319 104.212 319.086 104.348C319.172 104.483 319.293 104.591 319.449 104.672C319.605 104.75 319.786 104.789 319.992 104.789C320.273 104.789 320.522 104.741 320.738 104.645C320.957 104.546 321.141 104.413 321.289 104.246C321.438 104.077 321.546 103.882 321.613 103.66L321.75 103.887C321.706 104.025 321.637 104.164 321.543 104.305C321.449 104.445 321.328 104.574 321.18 104.691C321.031 104.806 320.857 104.9 320.656 104.973C320.456 105.043 320.228 105.078 319.973 105.078C319.704 105.078 319.47 105.029 319.27 104.93C319.072 104.828 318.918 104.69 318.809 104.516C318.699 104.339 318.645 104.137 318.645 103.91C318.645 103.715 318.689 103.536 318.777 103.375C318.866 103.214 318.993 103.076 319.16 102.961C319.329 102.844 319.534 102.755 319.773 102.695C320.016 102.633 320.288 102.602 320.59 102.602H321.645ZM323.176 100.773L324.445 102.582L325.711 100.773H326.09L324.625 102.836L326.164 105H325.789L324.445 103.094L323.102 105H322.727L324.262 102.836L322.801 100.773H323.176ZM328.512 105.078C328.246 105.078 328 105.027 327.773 104.926C327.547 104.822 327.349 104.677 327.18 104.492C327.01 104.305 326.878 104.083 326.781 103.828C326.688 103.573 326.641 103.293 326.641 102.988V102.816C326.641 102.501 326.688 102.215 326.781 101.957C326.878 101.697 327.008 101.473 327.172 101.285C327.336 101.095 327.525 100.949 327.738 100.848C327.954 100.746 328.185 100.695 328.43 100.695C328.677 100.695 328.901 100.741 329.102 100.832C329.302 100.923 329.474 101.051 329.617 101.215C329.76 101.379 329.87 101.574 329.945 101.801C330.021 102.027 330.059 102.277 330.059 102.551V102.812H326.836V102.527H329.75V102.477C329.747 102.211 329.693 101.965 329.586 101.738C329.482 101.512 329.332 101.329 329.137 101.191C328.941 101.051 328.706 100.98 328.43 100.98C328.208 100.98 328.007 101.027 327.824 101.121C327.645 101.215 327.49 101.345 327.359 101.512C327.229 101.676 327.129 101.87 327.059 102.094C326.988 102.315 326.953 102.556 326.953 102.816V102.988C326.953 103.238 326.992 103.473 327.07 103.691C327.148 103.91 327.258 104.103 327.398 104.27C327.539 104.434 327.704 104.562 327.895 104.656C328.085 104.75 328.293 104.797 328.52 104.797C328.764 104.797 328.988 104.754 329.191 104.668C329.395 104.582 329.579 104.431 329.746 104.215L329.949 104.367C329.855 104.503 329.742 104.624 329.609 104.73C329.477 104.837 329.319 104.922 329.137 104.984C328.957 105.047 328.749 105.078 328.512 105.078ZM333.602 103.949C333.602 103.824 333.568 103.701 333.5 103.578C333.435 103.456 333.314 103.341 333.137 103.234C332.962 103.128 332.708 103.038 332.375 102.965C332.138 102.913 331.928 102.855 331.746 102.793C331.566 102.73 331.415 102.655 331.293 102.566C331.171 102.475 331.078 102.367 331.016 102.242C330.956 102.117 330.926 101.967 330.926 101.793C330.926 101.642 330.958 101.5 331.023 101.367C331.089 101.234 331.184 101.118 331.309 101.02C331.436 100.918 331.589 100.839 331.766 100.781C331.943 100.724 332.143 100.695 332.367 100.695C332.688 100.695 332.961 100.749 333.188 100.855C333.417 100.96 333.592 101.104 333.715 101.289C333.837 101.471 333.898 101.684 333.898 101.926H333.586C333.586 101.762 333.539 101.608 333.445 101.465C333.352 101.322 333.214 101.206 333.031 101.117C332.852 101.026 332.63 100.98 332.367 100.98C332.102 100.98 331.885 101.021 331.719 101.102C331.552 101.182 331.43 101.285 331.352 101.41C331.276 101.533 331.238 101.658 331.238 101.785C331.238 101.887 331.253 101.982 331.281 102.07C331.312 102.156 331.371 102.236 331.457 102.309C331.543 102.382 331.667 102.452 331.828 102.52C331.99 102.585 332.199 102.646 332.457 102.703C332.796 102.779 333.072 102.871 333.285 102.98C333.499 103.087 333.656 103.219 333.758 103.375C333.859 103.529 333.91 103.717 333.91 103.941C333.91 104.108 333.875 104.262 333.805 104.402C333.734 104.54 333.633 104.66 333.5 104.762C333.37 104.863 333.211 104.941 333.023 104.996C332.836 105.051 332.628 105.078 332.398 105.078C332.052 105.078 331.758 105.023 331.516 104.914C331.276 104.802 331.094 104.655 330.969 104.473C330.846 104.29 330.785 104.094 330.785 103.883H331.098C331.116 104.115 331.191 104.297 331.324 104.43C331.46 104.562 331.624 104.656 331.816 104.711C332.012 104.766 332.206 104.793 332.398 104.793C332.661 104.793 332.882 104.753 333.059 104.672C333.238 104.589 333.374 104.483 333.465 104.355C333.556 104.225 333.602 104.09 333.602 103.949Z" fill="#004A83"/>
</g>
<defs>
<clipPath id="clip0_3914_1200">
<rect width="346" height="131" fill="white"/>
</clipPath>
</defs>
</svg>
